<svg width="24" height="24" viewBox="0 0 24 24" fill="none" xmlns="http://www.w3.org/2000/svg">
<mask id="mask0_69960_5191" style="mask-type:alpha" maskUnits="userSpaceOnUse" x="0" y="0" width="24" height="24">
<rect width="24" height="24" fill="#D9D9D9"/>
</mask>
<g mask="url(#mask0_69960_5191)">
<path d="M16.0998 13.3001L14.6498 11.8501C14.7998 11.0668 14.5748 10.3334 13.9748 9.6501C13.3748 8.96676 12.5998 8.7001 11.6498 8.8501L10.1998 7.4001C10.4831 7.26676 10.7706 7.16676 11.0623 7.1001C11.354 7.03343 11.6665 7.0001 11.9998 7.0001C13.2498 7.0001 14.3123 7.4376 15.1873 8.3126C16.0623 9.1876 16.4998 10.2501 16.4998 11.5001C16.4998 11.8334 16.4665 12.1459 16.3998 12.4376C16.3331 12.7293 16.2331 13.0168 16.0998 13.3001ZM19.2998 16.4501L17.8498 15.0501C18.4831 14.5668 19.0456 14.0376 19.5373 13.4626C20.029 12.8876 20.4498 12.2334 20.7998 11.5001C19.9665 9.81676 18.7706 8.47926 17.2123 7.4876C15.654 6.49593 13.9165 6.0001 11.9998 6.0001C11.5165 6.0001 11.0415 6.03343 10.5748 6.1001C10.1081 6.16676 9.64981 6.26676 9.19981 6.4001L7.6498 4.8501C8.33314 4.56676 9.03314 4.35426 9.7498 4.2126C10.4665 4.07093 11.2165 4.0001 11.9998 4.0001C14.3831 4.0001 16.5248 4.62926 18.4248 5.8876C20.3248 7.14593 21.7498 8.78343 22.6998 10.8001C22.7498 10.8834 22.7831 10.9876 22.7998 11.1126C22.8165 11.2376 22.8248 11.3668 22.8248 11.5001C22.8248 11.6334 22.8123 11.7626 22.7873 11.8876C22.7623 12.0126 22.7331 12.1168 22.6998 12.2001C22.3165 13.0501 21.8373 13.8334 21.2623 14.5501C20.6873 15.2668 20.0331 15.9001 19.2998 16.4501ZM19.0998 21.9001L15.5998 18.4501C15.0165 18.6334 14.429 18.7709 13.8373 18.8626C13.2456 18.9543 12.6331 19.0001 11.9998 19.0001C9.61647 19.0001 7.4748 18.3709 5.5748 17.1126C3.6748 15.8543 2.2498 14.2168 1.2998 12.2001C1.2498 12.1168 1.21647 12.0126 1.1998 11.8876C1.18314 11.7626 1.1748 11.6334 1.1748 11.5001C1.1748 11.3668 1.18314 11.2418 1.1998 11.1251C1.21647 11.0084 1.2498 10.9084 1.2998 10.8251C1.6498 10.0751 2.06647 9.38343 2.5498 8.7501C3.03314 8.11676 3.56647 7.53343 4.1498 7.0001L2.0748 4.9001C1.89147 4.71676 1.7998 4.4876 1.7998 4.2126C1.7998 3.9376 1.8998 3.7001 2.0998 3.5001C2.28314 3.31676 2.51647 3.2251 2.7998 3.2251C3.08314 3.2251 3.31647 3.31676 3.4998 3.5001L20.4998 20.5001C20.6831 20.6834 20.779 20.9126 20.7873 21.1876C20.7956 21.4626 20.6998 21.7001 20.4998 21.9001C20.3165 22.0834 20.0831 22.1751 19.7998 22.1751C19.5165 22.1751 19.2831 22.0834 19.0998 21.9001ZM5.5498 8.4001C5.06647 8.83343 4.6248 9.30843 4.2248 9.8251C3.8248 10.3418 3.48314 10.9001 3.1998 11.5001C4.03314 13.1834 5.22897 14.5209 6.7873 15.5126C8.34564 16.5043 10.0831 17.0001 11.9998 17.0001C12.3331 17.0001 12.6581 16.9793 12.9748 16.9376C13.2915 16.8959 13.6165 16.8501 13.9498 16.8001L13.0498 15.8501C12.8665 15.9001 12.6915 15.9376 12.5248 15.9626C12.3581 15.9876 12.1831 16.0001 11.9998 16.0001C10.7498 16.0001 9.68731 15.5626 8.8123 14.6876C7.9373 13.8126 7.4998 12.7501 7.4998 11.5001C7.4998 11.3168 7.5123 11.1418 7.5373 10.9751C7.5623 10.8084 7.5998 10.6334 7.6498 10.4501L5.5498 8.4001Z" fill="#A8A8A8"/>
</g>
</svg>
