<svg width="32" height="32" viewBox="0 0 32 32" fill="none" xmlns="http://www.w3.org/2000/svg">
<mask id="mask0_70853_4962" style="mask-type:alpha" maskUnits="userSpaceOnUse" x="0" y="0" width="32" height="32">
<rect width="32" height="32" fill="#D9D9D9"/>
</mask>
<g mask="url(#mask0_70853_4962)">
<path d="M15.94 23.2C16.36 23.2 16.715 23.055 17.005 22.765C17.295 22.475 17.44 22.12 17.44 21.7C17.44 21.28 17.295 20.925 17.005 20.635C16.715 20.345 16.36 20.2 15.94 20.2C15.52 20.2 15.165 20.345 14.875 20.635C14.585 20.925 14.44 21.28 14.44 21.7C14.44 22.12 14.585 22.475 14.875 22.765C15.165 23.055 15.52 23.2 15.94 23.2ZM16 28C14.34 28 12.78 27.685 11.32 27.055C9.86 26.425 8.59 25.57 7.51 24.49C6.43 23.41 5.575 22.14 4.945 20.68C4.315 19.22 4 17.66 4 16C4 14.34 4.315 12.78 4.945 11.32C5.575 9.86 6.43 8.59 7.51 7.51C8.59 6.43 9.86 5.575 11.32 4.945C12.78 4.315 14.34 4 16 4C17.66 4 19.22 4.315 20.68 4.945C22.14 5.575 23.41 6.43 24.49 7.51C25.57 8.59 26.425 9.86 27.055 11.32C27.685 12.78 28 14.34 28 16C28 17.66 27.685 19.22 27.055 20.68C26.425 22.14 25.57 23.41 24.49 24.49C23.41 25.57 22.14 26.425 20.68 27.055C19.22 27.685 17.66 28 16 28ZM16 25.6C18.68 25.6 20.95 24.67 22.81 22.81C24.67 20.95 25.6 18.68 25.6 16C25.6 13.32 24.67 11.05 22.81 9.19C20.95 7.33 18.68 6.4 16 6.4C13.32 6.4 11.05 7.33 9.19 9.19C7.33 11.05 6.4 13.32 6.4 16C6.4 18.68 7.33 20.95 9.19 22.81C11.05 24.67 13.32 25.6 16 25.6ZM16.12 10.84C16.62 10.84 17.055 11 17.425 11.32C17.795 11.64 17.98 12.04 17.98 12.52C17.98 12.96 17.845 13.35 17.575 13.69C17.305 14.03 17 14.35 16.66 14.65C16.2 15.05 15.795 15.49 15.445 15.97C15.095 16.45 14.92 16.99 14.92 17.59C14.92 17.87 15.025 18.105 15.235 18.295C15.445 18.485 15.69 18.58 15.97 18.58C16.27 18.58 16.525 18.48 16.735 18.28C16.945 18.08 17.08 17.83 17.14 17.53C17.22 17.11 17.4 16.735 17.68 16.405C17.96 16.075 18.26 15.76 18.58 15.46C19.04 15.02 19.435 14.54 19.765 14.02C20.095 13.5 20.26 12.92 20.26 12.28C20.26 11.26 19.845 10.425 19.015 9.775C18.185 9.125 17.22 8.8 16.12 8.8C15.36 8.8 14.635 8.96 13.945 9.28C13.255 9.6 12.73 10.09 12.37 10.75C12.23 10.99 12.185 11.245 12.235 11.515C12.285 11.785 12.42 11.99 12.64 12.13C12.92 12.29 13.21 12.34 13.51 12.28C13.81 12.22 14.06 12.05 14.26 11.77C14.48 11.47 14.755 11.24 15.085 11.08C15.415 10.92 15.76 10.84 16.12 10.84Z" fill="#A8A8A8"/>
</g>
</svg>
