<svg width="30" height="30" viewBox="0 0 30 30" fill="none" xmlns="http://www.w3.org/2000/svg">
<path d="M22.9546 4.77273L22.9546 25.2271C22.954 25.8296 22.7143 26.4074 22.2882 26.8334C21.8622 27.2595 21.2844 27.4992 20.6819 27.4998L16.1365 27.4998C15.5339 27.4992 14.9562 27.2595 14.5301 26.8334C14.104 26.4074 13.8644 25.8296 13.8638 25.2271L13.8638 4.77273C13.8644 4.17015 14.104 3.59243 14.5301 3.16635C14.9562 2.74026 15.5339 2.50062 16.1365 2.50002L20.6819 2.50002C21.2844 2.50062 21.8622 2.74026 22.2882 3.16635C22.7143 3.59243 22.954 4.17015 22.9546 4.77273ZM16.1365 25.2271L20.6819 25.2271L20.6819 4.77273L16.1365 4.77273L16.1365 25.2271ZM16.1365 4.77273L16.1365 25.2271C16.1359 25.8296 15.8962 26.4073 15.4701 26.8334C15.0441 27.2595 14.4663 27.4991 13.8638 27.4997L9.31835 27.4997C8.71578 27.4991 8.13806 27.2595 7.71197 26.8334C7.28589 26.4073 7.04625 25.8296 7.04565 25.227L7.04565 4.7727C7.04625 4.17013 7.28589 3.59241 7.71197 3.16632C8.13806 2.74024 8.71578 2.5006 9.31835 2.5L13.8638 2.5C14.4663 2.5006 15.0441 2.74024 15.4701 3.16632C15.8962 3.59241 16.1359 4.17015 16.1365 4.77273ZM9.31835 25.227L13.8638 25.2271L13.8638 4.77273L9.31835 4.7727L9.31835 25.227ZM9.31835 4.7727L9.31835 25.227C9.31775 25.8296 9.07811 26.4073 8.65203 26.8334C8.22594 27.2595 7.64822 27.4991 7.04565 27.4997L2.50024 27.4997C1.89767 27.4991 1.31995 27.2595 0.893863 26.8334C0.467779 26.4073 0.228141 25.8296 0.227539 25.227L0.227538 4.7727C0.22814 4.17013 0.467778 3.59241 0.893862 3.16632C1.31995 2.74024 1.89767 2.5006 2.50024 2.5L7.04565 2.5C7.64822 2.5006 8.22594 2.74024 8.65203 3.16632C9.07811 3.59241 9.31775 4.17013 9.31835 4.7727ZM2.50024 25.227L7.04565 25.227L7.04565 4.7727L2.50024 4.7727L2.50024 25.227Z" fill="#CDCDCD"/>
<path d="M29.7727 4.77298L29.7727 25.2273C29.7721 25.8299 29.5324 26.4076 29.1064 26.8337C28.6803 27.2598 28.1026 27.4994 27.5 27.5L22.9546 27.5C22.352 27.4994 21.7743 27.2598 21.3482 26.8337C20.9221 26.4076 20.6825 25.8296 20.6819 25.2271L20.6819 4.77273C20.6825 4.17015 20.9221 3.59268 21.3482 3.1666C21.7743 2.74051 22.352 2.50088 22.9546 2.50027L27.5 2.50027C28.1026 2.50088 28.6803 2.74051 29.1064 3.1666C29.5324 3.59268 29.7721 4.1704 29.7727 4.77298ZM22.9546 25.2271L27.5 25.2273L27.5 4.77298L22.9546 4.77273L22.9546 25.2271Z" fill="#CDCDCD"/>
</svg>
