<svg width="64" height="64" viewBox="0 0 64 64" fill="none" xmlns="http://www.w3.org/2000/svg">
<mask id="mask0_71395_17935" style="mask-type:alpha" maskUnits="userSpaceOnUse" x="0" y="0" width="64" height="64">
<rect width="64" height="64" fill="#D9D9D9"/>
</mask>
<g mask="url(#mask0_71395_17935)">
<path d="M31.9993 31.9998C29.066 31.9998 26.5549 30.9554 24.466 28.8665C22.3771 26.7776 21.3327 24.2665 21.3327 21.3332C21.3327 18.3998 22.3771 15.8887 24.466 13.7998C26.5549 11.7109 29.066 10.6665 31.9993 10.6665C34.9327 10.6665 37.4438 11.7109 39.5327 13.7998C41.6216 15.8887 42.666 18.3998 42.666 21.3332C42.666 24.2665 41.6216 26.7776 39.5327 28.8665C37.4438 30.9554 34.9327 31.9998 31.9993 31.9998ZM47.9994 53.3332H15.9993C14.5327 53.3332 13.2771 52.811 12.2327 51.7665C11.1882 50.7221 10.666 49.4665 10.666 47.9998V45.8665C10.666 44.3554 11.0549 42.9665 11.8327 41.6998C12.6105 40.4332 13.6438 39.4665 14.9327 38.7998C17.6882 37.4221 20.4882 36.3887 23.3327 35.6998C26.1771 35.0109 29.066 34.6665 31.9993 34.6665C34.9327 34.6665 37.8216 35.0109 40.666 35.6998C43.5105 36.3887 46.3105 37.4221 49.066 38.7998C50.3549 39.4665 51.3882 40.4332 52.166 41.6998C52.9438 42.9665 53.3327 44.3554 53.3327 45.8665V47.9998C53.3327 49.4665 52.8105 50.7221 51.766 51.7665C50.7216 52.811 49.466 53.3332 47.9994 53.3332ZM15.9993 47.9998H47.9994V45.8665C47.9994 45.3776 47.8771 44.9332 47.6327 44.5332C47.3882 44.1332 47.066 43.8221 46.666 43.5998C44.266 42.3998 41.8438 41.4998 39.3994 40.8998C36.9549 40.2998 34.4882 39.9998 31.9993 39.9998C29.5105 39.9998 27.0438 40.2998 24.5993 40.8998C22.1549 41.4998 19.7327 42.3998 17.3327 43.5998C16.9327 43.8221 16.6105 44.1332 16.366 44.5332C16.1216 44.9332 15.9993 45.3776 15.9993 45.8665V47.9998ZM31.9993 26.6665C33.466 26.6665 34.7216 26.1443 35.766 25.0998C36.8105 24.0554 37.3327 22.7998 37.3327 21.3332C37.3327 19.8665 36.8105 18.6109 35.766 17.5665C34.7216 16.5221 33.466 15.9998 31.9993 15.9998C30.5327 15.9998 29.2771 16.5221 28.2327 17.5665C27.1882 18.6109 26.666 19.8665 26.666 21.3332C26.666 22.7998 27.1882 24.0554 28.2327 25.0998C29.2771 26.1443 30.5327 26.6665 31.9993 26.6665Z" fill="white"/>
</g>
</svg>
