<svg width="20" height="8" viewBox="0 0 20 8" fill="none" xmlns="http://www.w3.org/2000/svg">
<path d="M18.9041 7.45098H1.09589C0.805242 7.45098 0.526498 7.33469 0.320979 7.12767C0.11546 6.92066 0 6.63989 0 6.34714C0 6.05438 0.11546 5.77361 0.320979 5.5666C0.526498 5.35958 0.805242 5.24329 1.09589 5.24329H18.9041C19.1948 5.24329 19.4735 5.35958 19.679 5.5666C19.8845 5.77361 20 6.05438 20 6.34714C20 6.63989 19.8845 6.92066 19.679 7.12767C19.4735 7.33469 19.1948 7.45098 18.9041 7.45098Z" fill="white"/>
<path d="M18.9041 2.2077H1.09589C0.805242 2.2077 0.526498 2.0914 0.320979 1.88439C0.11546 1.67738 0 1.39661 0 1.10385C0 0.81109 0.11546 0.530322 0.320979 0.32331C0.526498 0.116298 0.805242 0 1.09589 0L18.9041 0C19.1948 0 19.4735 0.116298 19.679 0.32331C19.8845 0.530322 20 0.81109 20 1.10385C20 1.39661 19.8845 1.67738 19.679 1.88439C19.4735 2.0914 19.1948 2.2077 18.9041 2.2077Z" fill="white"/>
</svg>
