<svg width="20" height="15" viewBox="0 0 20 15" fill="none" xmlns="http://www.w3.org/2000/svg">
<g clip-path="url(#clip0_371_3809)">
<path d="M18.9043 14.5098C18.6696 14.5102 18.4411 14.4354 18.2522 14.2963L10.0001 8.21313L1.74809 14.2963C1.63224 14.3819 1.50066 14.4438 1.36086 14.4785C1.22106 14.5133 1.07577 14.5202 0.933305 14.4988C0.790837 14.4775 0.653973 14.4283 0.530528 14.3541C0.407083 14.2799 0.299474 14.1821 0.213845 14.0663C0.128216 13.9506 0.0662437 13.8191 0.0314671 13.6794C-0.00330956 13.5397 -0.0102098 13.3945 0.0111604 13.2521C0.0543195 12.9646 0.21001 12.706 0.443982 12.5332L9.34809 5.96274C9.53679 5.82315 9.76536 5.7478 10.0001 5.7478C10.2349 5.7478 10.4635 5.82315 10.6522 5.96274L19.5563 12.5332C19.7422 12.6701 19.8801 12.8622 19.9503 13.0821C20.0204 13.302 20.0193 13.5384 19.9469 13.7576C19.8746 13.9768 19.7349 14.1675 19.5476 14.3026C19.3604 14.4377 19.1352 14.5102 18.9043 14.5098Z" fill="#FF3D00"/>
<path d="M18.9043 8.76069C18.6696 8.76109 18.4411 8.68624 18.2522 8.54715L10.0002 2.46398L1.7481 8.54715C1.51412 8.71995 1.22104 8.79281 0.93331 8.74968C0.645583 8.70655 0.386785 8.55098 0.213849 8.31718C0.0409137 8.08338 -0.0319941 7.79051 0.011165 7.503C0.054324 7.21548 0.210015 6.95688 0.443986 6.78407L9.3481 0.213593C9.5368 0.0740019 9.76537 -0.00134277 10.0002 -0.00134277C10.2349 -0.00134277 10.4635 0.0740019 10.6522 0.213593L19.5563 6.78407C19.7422 6.92099 19.8801 7.1131 19.9503 7.33298C20.0204 7.55286 20.0193 7.78926 19.947 8.00845C19.8746 8.22763 19.7349 8.41838 19.5476 8.55347C19.3604 8.68856 19.1352 8.76109 18.9043 8.76069Z" fill="#FF3D00"/>
</g>
<defs>
<clipPath id="clip0_371_3809">
<rect width="20" height="14.5098" fill="white"/>
</clipPath>
</defs>
</svg>
