<svg width="60" height="60" viewBox="0 0 60 60" fill="none" xmlns="http://www.w3.org/2000/svg">
<circle cx="30" cy="30" r="30" fill="#FF3D00"/>
<g clip-path="url(#clip0_62_691)">
<path d="M44.8714 41.1631C44.4704 41.1638 44.0797 41.0342 43.7568 40.7934L29.6516 30.2635L15.5463 40.7934C15.3483 40.9415 15.1234 41.0487 14.8844 41.1089C14.6455 41.169 14.3971 41.181 14.1536 41.144C13.9101 41.107 13.6761 41.0219 13.4651 40.8934C13.2541 40.765 13.0702 40.5957 12.9238 40.3954C12.7775 40.195 12.6715 39.9674 12.6121 39.7255C12.5527 39.4837 12.5409 39.2324 12.5774 38.986C12.6512 38.4883 12.9173 38.0407 13.3172 37.7416L28.537 26.3681C28.8596 26.1265 29.2503 25.9961 29.6516 25.9961C30.0529 25.9961 30.4436 26.1265 30.7661 26.3681L45.986 37.7416C46.3037 37.9786 46.5394 38.3111 46.6593 38.6917C46.7792 39.0723 46.7773 39.4815 46.6537 39.8609C46.5301 40.2403 46.2912 40.5705 45.9711 40.8044C45.6511 41.0382 45.2662 41.1637 44.8714 41.1631Z" fill="white"/>
<path d="M44.8714 31.2111C44.4704 31.2118 44.0797 31.0823 43.7568 30.8415L29.6516 20.3116L15.5463 30.8415C15.1464 31.1406 14.6454 31.2668 14.1536 31.1921C13.6618 31.1174 13.2194 30.8481 12.9238 30.4434C12.6282 30.0387 12.5036 29.5318 12.5774 29.0341C12.6512 28.5364 12.9173 28.0888 13.3172 27.7896L28.537 16.4162C28.8596 16.1746 29.2503 16.0442 29.6516 16.0442C30.0529 16.0442 30.4436 16.1746 30.7661 16.4162L45.986 27.7896C46.3038 28.0267 46.5394 28.3592 46.6593 28.7398C46.7793 29.1204 46.7773 29.5296 46.6537 29.909C46.5301 30.2884 46.2912 30.6186 45.9711 30.8525C45.6511 31.0863 45.2662 31.2118 44.8714 31.2111Z" fill="white"/>
</g>
<defs>
<clipPath id="clip0_62_691">
<rect width="34.186" height="25.1163" fill="white" transform="translate(12.5586 16.0466)"/>
</clipPath>
</defs>
</svg>
